<svg width="67" height="71" viewBox="0 0 67 71" fill="none" xmlns="http://www.w3.org/2000/svg">
<path d="M11.7913 40.5938H16.6169C17.7409 29.9077 26.2525 21.3961 36.9386 20.2721V15.4465C23.6014 16.5976 12.9386 27.2565 11.7913 40.5938Z" fill="#076375"/>
<path d="M16.6169 45.4H11.7913C12.9424 58.7333 23.6052 69.3883 36.9386 70.5434V65.7178C26.2525 64.5938 17.7409 56.0821 16.6169 45.4Z" fill="#076375"/>
<path d="M62.0587 45.4C60.9347 56.0821 52.4231 64.5938 41.7409 65.7178V70.5434C55.0742 69.3922 65.7293 58.7333 66.8843 45.4H62.0587Z" fill="#076375"/>
<path d="M41.7409 15.4465V20.2721C52.4231 21.3961 60.9347 29.9077 62.0587 40.5938H66.8843C65.737 27.2565 55.0781 16.6015 41.7409 15.4465Z" fill="#4ABEA7"/>
<path d="M24.144 42.9736L36.2254 45.6519L36.3223 45.6752L39.02 57.9349L50.6789 31.5977L50.7099 31.5279L24.144 42.9736Z" fill="#B2D236"/>
<path d="M7.67043 22.3725L7.24881 23.1266C7.00697 23.05 6.77278 23.0215 6.54625 23.0412C6.32085 23.0588 6.1082 23.1155 5.90831 23.2113C5.70752 23.3039 5.52547 23.4297 5.36217 23.5885C5.19887 23.7473 5.05942 23.9301 4.94382 24.1368C4.73301 24.5139 4.63731 24.9087 4.65671 25.3214C4.67726 25.732 4.82257 26.1312 5.09267 26.519C5.36389 26.9048 5.76911 27.2485 6.30833 27.5499C6.84755 27.8514 7.35251 28.0167 7.82321 28.0457C8.29505 28.0727 8.71124 27.9874 9.0718 27.7899C9.4335 27.5903 9.71975 27.302 9.93056 26.925C10.0462 26.7182 10.1289 26.5037 10.1786 26.2814C10.2284 26.0591 10.2412 25.8388 10.217 25.6203C10.1919 25.3988 10.1278 25.1873 10.0248 24.9861C9.92092 24.7816 9.774 24.597 9.58406 24.4323L10.0057 23.6782C10.2922 23.9129 10.5192 24.1755 10.6867 24.4661C10.8542 24.7566 10.9638 25.0627 11.0155 25.3843C11.0651 25.7048 11.0579 26.0293 10.9939 26.3581C10.931 26.6847 10.8117 27.0052 10.636 27.3194C10.3391 27.8505 9.94523 28.2503 9.45455 28.5188C8.96387 28.7872 8.41302 28.9063 7.80201 28.876C7.191 28.8457 6.5571 28.6469 5.90031 28.2797C5.24352 27.9125 4.74223 27.4765 4.39643 26.9719C4.05064 26.4672 3.86361 25.9356 3.83535 25.377C3.80708 24.8184 3.94143 24.2735 4.23838 23.7424C4.41405 23.4282 4.62457 23.1588 4.86993 22.9341C5.11643 22.7074 5.39019 22.5318 5.69122 22.4074C5.99023 22.2819 6.30735 22.2144 6.64258 22.205C6.97579 22.1944 7.31841 22.2502 7.67043 22.3725Z" fill="#58595B"/>
<path d="M14.369 16.5196C14.922 17.0299 15.3077 17.5707 15.5263 18.1421C15.7448 18.7135 15.8027 19.2741 15.6998 19.8239C15.597 20.3737 15.3393 20.8722 14.9266 21.3194C14.514 21.7666 14.0378 22.0635 13.498 22.21C12.9582 22.3566 12.3948 22.3439 11.8077 22.1719C11.2206 21.9999 10.6506 21.6588 10.0976 21.1485C9.54456 20.6382 9.15879 20.0973 8.94026 19.5259C8.72173 18.9545 8.66387 18.3939 8.7667 17.8441C8.86953 17.2944 9.12727 16.7959 9.53992 16.3487C9.95257 15.9015 10.4288 15.6046 10.9686 15.458C11.5083 15.3114 12.0718 15.3241 12.6588 15.4961C13.2459 15.6681 13.816 16.0093 14.369 16.5196ZM13.802 17.134C13.348 16.7151 12.8947 16.4375 12.4422 16.3011C11.9912 16.1631 11.5666 16.1489 11.1683 16.2586C10.7717 16.3666 10.4268 16.5793 10.1339 16.8968C9.84094 17.2142 9.65577 17.5759 9.57839 17.9816C9.50258 18.3857 9.55076 18.8078 9.72293 19.248C9.89668 19.6864 10.2106 20.1151 10.6646 20.534C11.1186 20.953 11.5711 21.2315 12.022 21.3695C12.4745 21.5058 12.8991 21.52 13.2958 21.412C13.6941 21.3023 14.0397 21.0887 14.3326 20.7713C14.6256 20.4538 14.81 20.093 14.8858 19.689C14.9632 19.2832 14.915 18.8611 14.7412 18.4227C14.5691 17.9825 14.256 17.553 13.802 17.134Z" fill="#58595B"/>
<path d="M14.8367 11.3517L15.7082 10.8005L20.9229 14.5099L20.9935 14.4652L19.8773 8.16388L20.7488 7.61272L24.5623 13.6427L23.8792 14.0747L20.9819 9.49331L20.923 9.53055L21.936 15.3036L21.2764 15.7207L16.4948 12.3311L16.4359 12.3683L19.3332 16.9496L18.6501 17.3816L14.8367 11.3517Z" fill="#58595B"/>
<path d="M26.6624 12.7488L24.3466 6.00046L26.6268 5.21799C27.1562 5.03632 27.6218 4.98338 28.0235 5.05916C28.4266 5.13199 28.7648 5.30197 29.0382 5.56911C29.3116 5.83624 29.5165 6.16861 29.6529 6.56622C29.7893 6.96383 29.8321 7.35308 29.7811 7.73398C29.7323 8.11412 29.573 8.45851 29.3032 8.76716C29.0327 9.07361 28.635 9.31692 28.1099 9.49708L26.4756 10.0579L26.2268 9.333L27.8348 8.78121C28.1973 8.65683 28.4669 8.49434 28.6436 8.29374C28.8203 8.09315 28.9215 7.86935 28.9472 7.62234C28.9744 7.37239 28.9416 7.11231 28.8489 6.84212C28.7562 6.57192 28.6227 6.34762 28.4486 6.16921C28.2766 5.99005 28.0589 5.87813 27.7956 5.83345C27.5315 5.78657 27.2161 5.82607 26.8492 5.95196L25.4126 6.44496L27.4795 12.4684L26.6624 12.7488Z" fill="#58595B"/>
<path d="M32.8042 10.8069L31.9077 10.9359L33.4843 3.50091L34.3671 3.37387L37.9765 10.0625L37.0799 10.1915L34.1141 4.55063L34.0589 4.55857L32.8042 10.8069ZM32.7382 8.00075L36.3519 7.48065L36.4611 8.23925L32.8474 8.75934L32.7382 8.00075Z" fill="#58595B"/>
<path d="M43.8037 4.93366C43.7837 4.57874 43.6314 4.29477 43.3467 4.08175C43.062 3.86873 42.704 3.74892 42.2729 3.72232C41.9576 3.70288 41.6786 3.73686 41.4359 3.82426C41.1955 3.91182 41.0037 4.04076 40.8605 4.2111C40.7197 4.38158 40.6423 4.58041 40.6283 4.80758C40.6166 4.99766 40.6517 5.16387 40.7337 5.30621C40.8181 5.44638 40.9294 5.5661 41.0675 5.66537C41.2058 5.76232 41.352 5.84463 41.506 5.91231C41.6602 5.97767 41.8023 6.03181 41.9323 6.07473L42.6435 6.31406C42.826 6.37418 43.0281 6.45413 43.25 6.55391C43.4742 6.65383 43.686 6.78441 43.8855 6.94563C44.0874 7.10468 44.2497 7.30317 44.3723 7.5411C44.4949 7.77902 44.5459 8.06488 44.5253 8.39868C44.5016 8.78348 44.3793 9.12497 44.1585 9.42315C43.94 9.72147 43.6327 9.95032 43.2366 10.1097C42.8428 10.2692 42.3724 10.3321 41.8253 10.2984C41.3153 10.2669 40.8788 10.1574 40.5158 9.96979C40.155 9.78233 39.8771 9.53483 39.682 9.22728C39.4892 8.91987 39.391 8.5706 39.3872 8.17945L40.2773 8.23436C40.2839 8.50468 40.3606 8.73279 40.5073 8.91869C40.6565 9.10241 40.8502 9.24466 41.0883 9.34544C41.3289 9.44405 41.5906 9.50208 41.8734 9.51952C42.2025 9.53983 42.5014 9.50475 42.7699 9.41427C43.0385 9.32148 43.2553 9.18361 43.4202 9.00065C43.5852 8.81537 43.6757 8.59292 43.6917 8.3333C43.7063 8.09685 43.6521 7.90038 43.5291 7.74387C43.4061 7.58737 43.2397 7.4561 43.0299 7.35008C42.82 7.24406 42.592 7.14856 42.346 7.06357L41.4852 6.75917C40.9387 6.56491 40.5124 6.30941 40.2062 5.99268C39.8999 5.67595 39.7616 5.27766 39.7912 4.79783C39.8158 4.39912 39.9451 4.05806 40.1789 3.77465C40.4153 3.48906 40.7217 3.27527 41.0981 3.13328C41.4769 2.98912 41.8935 2.93105 42.3479 2.95908C42.8068 2.98739 43.2097 3.09485 43.5566 3.28146C43.9035 3.46574 44.1726 3.70572 44.3638 4.00139C44.5573 4.29721 44.6488 4.62512 44.6382 4.98514L43.8037 4.93366Z" fill="#58595B"/>
<path d="M51.4106 6.47306C51.4618 6.12128 51.3691 5.81264 51.1326 5.54714C50.8961 5.28163 50.5692 5.09287 50.152 4.98085C49.847 4.89894 49.5668 4.87661 49.3115 4.91387C49.0585 4.95174 48.8448 5.03986 48.6706 5.17824C48.4986 5.31723 48.3831 5.49663 48.3241 5.71644C48.2747 5.90037 48.276 6.07025 48.3279 6.22607C48.3827 6.38026 48.4679 6.51976 48.5835 6.64458C48.6997 6.76715 48.8265 6.87695 48.964 6.97398C49.102 7.06877 49.2305 7.15015 49.3493 7.21813L49.9985 7.59445C50.1653 7.68973 50.3475 7.80838 50.545 7.9504C50.7448 8.09301 50.9263 8.2632 51.0897 8.46096C51.2558 8.65707 51.3753 8.88393 51.448 9.14152C51.5207 9.39911 51.5137 9.6894 51.427 10.0124C51.327 10.3847 51.1391 10.695 50.8632 10.9432C50.5896 11.1919 50.2429 11.3549 49.8229 11.4321C49.4053 11.51 48.9318 11.4778 48.4024 11.3357C47.9089 11.2032 47.503 11.0088 47.1847 10.7526C46.8685 10.497 46.6456 10.199 46.5157 9.85876C46.3881 9.51909 46.3614 9.15723 46.4356 8.77317L47.297 9.00445C47.2495 9.27066 47.2792 9.50948 47.3859 9.7209C47.4955 9.93068 47.657 10.1087 47.8702 10.2549C48.0863 10.3995 48.3311 10.5085 48.6048 10.582C48.9233 10.6675 49.2231 10.6927 49.5043 10.6576C49.786 10.6203 50.0259 10.5284 50.224 10.3819C50.4226 10.2333 50.5556 10.0333 50.6231 9.78212C50.6845 9.55334 50.6706 9.35 50.5813 9.17212C50.492 8.99424 50.3551 8.83243 50.1706 8.6867C49.9861 8.54097 49.7817 8.40193 49.5575 8.2696L48.7747 7.79969C48.278 7.50038 47.9111 7.16501 47.6742 6.79359C47.4372 6.42216 47.3811 6.0043 47.5058 5.54C47.6094 5.1542 47.804 4.84575 48.0897 4.61466C48.3782 4.38193 48.7211 4.23351 49.1182 4.16942C49.5182 4.10368 49.9381 4.12984 50.3777 4.24788C50.8218 4.36713 51.1952 4.55276 51.4979 4.80476C51.8011 5.05452 52.017 5.34333 52.1454 5.67118C52.276 5.99963 52.3002 6.3392 52.2181 6.68988L51.4106 6.47306Z" fill="#58595B"/>
</svg>
