<svg preserveAspectRatio="none" width="100%" height="100%" overflow="visible" style="display: block;" viewBox="0 0 24.2503 24.2503" fill="none" xmlns="http://www.w3.org/2000/svg">
<path id="Vector" d="M13.3139 18.3066C13.3139 18.5417 13.2442 18.7715 13.1136 18.967C12.9829 19.1625 12.7973 19.3149 12.5801 19.4049C12.3629 19.4948 12.1238 19.5184 11.8932 19.4725C11.6627 19.4266 11.4508 19.3134 11.2846 19.1472C11.1183 18.9809 11.0051 18.7691 10.9593 18.5385C10.9134 18.3079 10.9369 18.0689 11.0269 17.8517C11.1169 17.6345 11.2692 17.4488 11.4647 17.3182C11.6602 17.1876 11.89 17.1179 12.1252 17.1179C12.4404 17.1179 12.7428 17.2431 12.9657 17.466C13.1887 17.689 13.3139 17.9913 13.3139 18.3066ZM12.1252 5.70595C9.6288 5.70595 7.60794 7.51878 7.60794 9.74767V10.2232C7.60794 10.4123 7.68309 10.5937 7.81685 10.7275C7.95061 10.8613 8.13202 10.9364 8.32119 10.9364C8.51035 10.9364 8.69177 10.8613 8.82553 10.7275C8.95929 10.5937 9.03443 10.4123 9.03443 10.2232V9.74767C9.03443 8.30573 10.4205 7.13244 12.1252 7.13244C13.8298 7.13244 15.2159 8.30573 15.2159 9.74767C15.2159 11.1896 13.8298 12.3629 12.1252 12.3629C11.936 12.3629 11.7546 12.438 11.6208 12.5718C11.4871 12.7056 11.4119 12.887 11.4119 13.0761V14.0271C11.4119 14.2163 11.4871 14.3977 11.6208 14.5315C11.7546 14.6652 11.936 14.7404 12.1252 14.7404C12.3143 14.7404 12.4957 14.6652 12.6295 14.5315C12.7633 14.3977 12.8384 14.2163 12.8384 14.0271V13.7395C14.9912 13.4328 16.6424 11.759 16.6424 9.74767C16.6424 7.51878 14.6215 5.70595 12.1252 5.70595ZM24.2503 12.1252C24.2503 14.5233 23.5392 16.8676 22.2069 18.8615C20.8745 20.8555 18.9808 22.4096 16.7652 23.3273C14.5497 24.2451 12.1117 24.4852 9.75966 24.0173C7.40761 23.5495 5.24711 22.3947 3.55138 20.6989C1.85565 19.0032 0.700838 16.8427 0.232987 14.4906C-0.234865 12.1386 0.00525344 9.70064 0.922977 7.48506C1.8407 5.26947 3.39481 3.37578 5.38878 2.04346C7.38275 0.711127 9.72703 0 12.1252 0C15.3398 0.00377526 18.4217 1.28246 20.6948 3.55554C22.9679 5.82863 24.2465 8.91052 24.2503 12.1252ZM22.8238 12.1252C22.8238 10.0092 22.1964 7.94068 21.0208 6.18129C19.8452 4.42191 18.1743 3.05063 16.2194 2.24088C14.2644 1.43112 12.1133 1.21925 10.038 1.63206C7.96261 2.04487 6.05629 3.06382 4.56006 4.56005C3.06382 6.05629 2.04488 7.96261 1.63207 10.0379C1.21926 12.1133 1.43112 14.2644 2.24088 16.2194C3.05064 18.1743 4.42191 19.8452 6.1813 21.0208C7.94068 22.1963 10.0092 22.8238 12.1252 22.8238C14.9617 22.8207 17.6811 21.6925 19.6868 19.6868C21.6925 17.6811 22.8207 14.9616 22.8238 12.1252Z" fill="var(--fill-0, #B2D236)"/>
</svg>
