<svg width="56" height="56" viewBox="0 0 56 56" fill="none" xmlns="http://www.w3.org/2000/svg">
<path d="M0 25.1473H4.82558C5.94961 14.4612 14.4612 5.94961 25.1473 4.82558V0C11.8101 1.15116 1.14729 11.8101 0 25.1473Z" fill="#076375"/>
<path d="M4.82558 29.9535H0C1.15116 43.2868 11.814 53.9419 25.1473 55.0969V50.2713C14.4612 49.1473 5.94961 40.6357 4.82558 29.9535Z" fill="#076375"/>
<path d="M50.2674 29.9535C49.1434 40.6357 40.6318 49.1473 29.9496 50.2713V55.0969C43.2829 53.9457 53.938 43.2868 55.093 29.9535H50.2674Z" fill="#076375"/>
<path d="M29.9496 0V4.82558C40.6318 5.94961 49.1434 14.4612 50.2674 25.1473H55.093C53.9457 11.8101 43.2868 1.15504 29.9496 0Z" fill="#4ABEA7"/>
<path d="M12.3528 27.5272L24.4342 30.2055L24.5311 30.2287L27.2288 42.4884L38.8877 16.1512L38.9187 16.0814L12.3528 27.5272Z" fill="#B2D236"/>
</svg>
