<svg width="118" height="36" viewBox="0 0 118 36" fill="none" xmlns="http://www.w3.org/2000/svg">
<path d="M64.6223 13.414L70.7023 0.114014H72.0893L78.1693 13.414H76.6873L71.1013 0.931015H71.6713L66.0853 13.414H64.6223ZM67.0163 9.86101L67.4343 8.72101H75.1673L75.5853 9.86101H67.0163Z" fill="#5A514F"/>
<path d="M59.0922 13.414V1.33001H54.4182V0.114014H65.1722V1.33001H60.4982V13.414H59.0922Z" fill="#5A514F"/>
<path d="M48.6712 13.528C47.6832 13.528 46.7332 13.3697 45.8212 13.053C44.9219 12.7237 44.2252 12.3057 43.7312 11.799L44.2822 10.716C44.7509 11.172 45.3779 11.5583 46.1632 11.875C46.9612 12.179 47.7972 12.331 48.6712 12.331C49.5072 12.331 50.1849 12.2297 50.7042 12.027C51.2362 11.8117 51.6225 11.5267 51.8632 11.172C52.1165 10.8173 52.2432 10.4247 52.2432 9.994C52.2432 9.47467 52.0912 9.05667 51.7872 8.74C51.4959 8.42333 51.1095 8.17633 50.6282 7.999C50.1469 7.809 49.6149 7.64433 49.0322 7.505C48.4495 7.36567 47.8669 7.22 47.2842 7.068C46.7015 6.90333 46.1632 6.688 45.6692 6.422C45.1879 6.156 44.7952 5.80767 44.4912 5.377C44.1999 4.93367 44.0542 4.35733 44.0542 3.648C44.0542 2.98933 44.2252 2.38767 44.5672 1.843C44.9219 1.28567 45.4602 0.842333 46.1822 0.513C46.9042 0.171 47.8289 0 48.9562 0C49.7035 0 50.4445 0.107667 51.1792 0.323C51.9139 0.525667 52.5472 0.810666 53.0792 1.178L52.6042 2.299C52.0342 1.919 51.4262 1.64033 50.7802 1.463C50.1469 1.28567 49.5325 1.197 48.9372 1.197C48.1392 1.197 47.4805 1.30467 46.9612 1.52C46.4419 1.73533 46.0555 2.02667 45.8022 2.394C45.5615 2.74867 45.4412 3.154 45.4412 3.61C45.4412 4.12933 45.5869 4.54733 45.8782 4.864C46.1822 5.18067 46.5749 5.42767 47.0562 5.605C47.5502 5.78233 48.0885 5.94067 48.6712 6.08C49.2539 6.21933 49.8302 6.37133 50.4002 6.536C50.9829 6.70067 51.5149 6.916 51.9962 7.182C52.4902 7.43533 52.8829 7.77733 53.1742 8.208C53.4782 8.63867 53.6302 9.20233 53.6302 9.899C53.6302 10.545 53.4529 11.1467 53.0982 11.704C52.7435 12.2487 52.1989 12.692 51.4642 13.034C50.7422 13.3633 49.8112 13.528 48.6712 13.528Z" fill="#5A514F"/>
<path d="M32.2943 13.414V0.114014H41.4143V1.33001H33.7003V12.198H41.6993V13.414H32.2943ZM33.5483 7.25801V6.06101H40.5783V7.25801H33.5483Z" fill="#5A514F"/>
<path d="M22.6044 13.528C20.9071 13.528 19.5708 13.0403 18.5954 12.065C17.6201 11.0897 17.1324 9.64568 17.1324 7.73301V0.114014H18.5384V7.67601C18.5384 9.24668 18.8931 10.4057 19.6024 11.153C20.3118 11.9003 21.3124 12.274 22.6044 12.274C23.9091 12.274 24.9161 11.9003 25.6254 11.153C26.3348 10.4057 26.6894 9.24668 26.6894 7.67601V0.114014H28.0574V7.73301C28.0574 9.64568 27.5698 11.0897 26.5944 12.065C25.6318 13.0403 24.3018 13.528 22.6044 13.528Z" fill="#5A514F"/>
<path d="M7.12201 13.528C6.12134 13.528 5.19034 13.3633 4.32901 13.034C3.48034 12.692 2.73934 12.217 2.106 11.609C1.48534 10.9883 0.997672 10.2727 0.643005 9.462C0.301005 8.63867 0.130005 7.73933 0.130005 6.764C0.130005 5.78867 0.301005 4.89567 0.643005 4.085C0.997672 3.26167 1.48534 2.546 2.106 1.938C2.73934 1.31733 3.48034 0.842333 4.32901 0.513C5.17767 0.171 6.10867 0 7.12201 0C8.12267 0 9.04734 0.171 9.89601 0.513C10.7447 0.842333 11.4793 1.311 12.1 1.919C12.7333 2.527 13.221 3.24267 13.563 4.066C13.9177 4.88933 14.095 5.78867 14.095 6.764C14.095 7.73933 13.9177 8.63867 13.563 9.462C13.221 10.2853 12.7333 11.001 12.1 11.609C11.4793 12.217 10.7447 12.692 9.89601 13.034C9.04734 13.3633 8.12267 13.528 7.12201 13.528ZM11.473 16.055C11.0677 16.055 10.675 16.0043 10.295 15.903C9.91501 15.8017 9.52867 15.637 9.13601 15.409C8.75601 15.1937 8.36334 14.9087 7.958 14.554C7.55267 14.1993 7.10934 13.7687 6.62801 13.262L8.16701 12.882C8.55967 13.3507 8.93967 13.737 9.30701 14.041C9.68701 14.345 10.0543 14.5667 10.409 14.706C10.7763 14.858 11.1373 14.934 11.492 14.934C12.48 14.934 13.3223 14.5287 14.019 13.718L14.703 14.535C13.867 15.5483 12.7903 16.055 11.473 16.055ZM7.12201 12.274C7.92001 12.274 8.65467 12.141 9.326 11.875C10.01 11.5963 10.599 11.2037 11.093 10.697C11.5997 10.1903 11.9923 9.60767 12.271 8.949C12.5497 8.27767 12.689 7.54933 12.689 6.764C12.689 5.966 12.5497 5.23767 12.271 4.579C11.9923 3.90767 11.5997 3.325 11.093 2.831C10.599 2.32433 10.01 1.938 9.326 1.672C8.65467 1.39333 7.92001 1.254 7.12201 1.254C6.32401 1.254 5.58301 1.39333 4.899 1.672C4.21501 1.938 3.61967 2.32433 3.11301 2.831C2.61901 3.325 2.22634 3.90767 1.935 4.579C1.65634 5.23767 1.517 5.966 1.517 6.764C1.517 7.54933 1.65634 8.27767 1.935 8.949C2.22634 9.60767 2.61901 10.1903 3.11301 10.697C3.61967 11.2037 4.21501 11.5963 4.899 11.875C5.58301 12.141 6.32401 12.274 7.12201 12.274Z" fill="#5A514F"/>
<path d="M110.793 35.678C109.561 35.678 108.38 35.5167 107.251 35.194C106.121 34.8567 105.212 34.424 104.523 33.896L105.733 31.212C106.393 31.6813 107.17 32.07 108.065 32.378C108.974 32.6713 109.891 32.818 110.815 32.818C111.519 32.818 112.083 32.752 112.509 32.62C112.949 32.4733 113.271 32.2753 113.477 32.026C113.682 31.7767 113.785 31.4907 113.785 31.168C113.785 30.7573 113.623 30.4347 113.301 30.2C112.978 29.9507 112.553 29.7527 112.025 29.606C111.497 29.4447 110.91 29.298 110.265 29.166C109.634 29.0193 108.996 28.8433 108.351 28.638C107.72 28.4327 107.141 28.1687 106.613 27.846C106.085 27.5233 105.652 27.098 105.315 26.57C104.992 26.042 104.831 25.3673 104.831 24.546C104.831 23.666 105.065 22.8667 105.535 22.148C106.019 21.4147 106.737 20.8353 107.691 20.41C108.659 19.97 109.869 19.75 111.321 19.75C112.289 19.75 113.242 19.8673 114.181 20.102C115.119 20.322 115.948 20.6593 116.667 21.114L115.567 23.82C114.848 23.4093 114.129 23.1087 113.411 22.918C112.692 22.7127 111.988 22.61 111.299 22.61C110.609 22.61 110.045 22.6907 109.605 22.852C109.165 23.0133 108.849 23.226 108.659 23.49C108.468 23.7393 108.373 24.0327 108.373 24.37C108.373 24.766 108.534 25.0887 108.857 25.338C109.179 25.5727 109.605 25.7633 110.133 25.91C110.661 26.0567 111.24 26.2033 111.871 26.35C112.516 26.4967 113.154 26.6653 113.785 26.856C114.43 27.0467 115.017 27.3033 115.545 27.626C116.073 27.9487 116.498 28.374 116.821 28.902C117.158 29.43 117.327 30.0973 117.327 30.904C117.327 31.7693 117.085 32.5613 116.601 33.28C116.117 33.9987 115.391 34.578 114.423 35.018C113.469 35.458 112.259 35.678 110.793 35.678Z" fill="#5A514F"/>
<path d="M96.1034 35.678C94.8714 35.678 93.6907 35.5167 92.5614 35.194C91.432 34.8567 90.5227 34.424 89.8334 33.896L91.0434 31.212C91.7034 31.6813 92.4807 32.07 93.3754 32.378C94.2847 32.6713 95.2014 32.818 96.1254 32.818C96.8294 32.818 97.394 32.752 97.8194 32.62C98.2594 32.4733 98.582 32.2753 98.7874 32.026C98.9927 31.7767 99.0954 31.4907 99.0954 31.168C99.0954 30.7573 98.934 30.4347 98.6114 30.2C98.2887 29.9507 97.8634 29.7527 97.3354 29.606C96.8074 29.4447 96.2207 29.298 95.5754 29.166C94.9447 29.0193 94.3067 28.8433 93.6614 28.638C93.0307 28.4327 92.4514 28.1687 91.9234 27.846C91.3954 27.5233 90.9627 27.098 90.6254 26.57C90.3027 26.042 90.1414 25.3673 90.1414 24.546C90.1414 23.666 90.376 22.8667 90.8454 22.148C91.3294 21.4147 92.048 20.8353 93.0014 20.41C93.9694 19.97 95.1794 19.75 96.6314 19.75C97.5994 19.75 98.5527 19.8673 99.4914 20.102C100.43 20.322 101.259 20.6593 101.977 21.114L100.877 23.82C100.159 23.4093 99.44 23.1087 98.7214 22.918C98.0027 22.7127 97.2987 22.61 96.6094 22.61C95.92 22.61 95.3554 22.6907 94.9154 22.852C94.4754 23.0133 94.16 23.226 93.9694 23.49C93.7787 23.7393 93.6834 24.0327 93.6834 24.37C93.6834 24.766 93.8447 25.0887 94.1674 25.338C94.49 25.5727 94.9154 25.7633 95.4434 25.91C95.9714 26.0567 96.5507 26.2033 97.1814 26.35C97.8267 26.4967 98.4647 26.6653 99.0954 26.856C99.7407 27.0467 100.327 27.3033 100.855 27.626C101.383 27.9487 101.809 28.374 102.131 28.902C102.469 29.43 102.637 30.0973 102.637 30.904C102.637 31.7693 102.395 32.5613 101.911 33.28C101.427 33.9987 100.701 34.578 99.7334 35.018C98.78 35.458 97.57 35.678 96.1034 35.678Z" fill="#5A514F"/>
<path d="M71.5156 35.414L78.3796 20.014H81.8996L88.7856 35.414H85.0456L79.4136 21.818H80.8216L75.1676 35.414H71.5156ZM74.9476 32.114L75.8936 29.408H83.8136L84.7816 32.114H74.9476Z" fill="#5A514F"/>
<path d="M57.7546 35.414V20.014H64.4206C65.7993 20.014 66.9873 20.2413 67.9846 20.696C68.982 21.136 69.752 21.774 70.2946 22.61C70.8373 23.446 71.1086 24.4433 71.1086 25.602C71.1086 26.746 70.8373 27.736 70.2946 28.572C69.752 29.408 68.982 30.0533 67.9846 30.508C66.9873 30.948 65.7993 31.168 64.4206 31.168H59.7346L61.3186 29.562V35.414H57.7546ZM61.3186 29.958L59.7346 28.264H64.2226C65.3226 28.264 66.144 28.0293 66.6866 27.56C67.2293 27.0906 67.5006 26.438 67.5006 25.602C67.5006 24.7513 67.2293 24.0913 66.6866 23.622C66.144 23.1526 65.3226 22.918 64.2226 22.918H59.7346L61.3186 21.224V29.958Z" fill="#5A514F"/>
<path d="M36.0829 35.414V20.014H39.0309L45.5869 30.882H44.0249L50.4709 20.014H53.3969L53.4409 35.414H50.0969L50.0749 25.14H50.6909L45.5429 33.786H43.9369L38.6789 25.14H39.4269V35.414H36.0829Z" fill="#5A514F"/>
<path d="M24.3403 35.678C23.123 35.678 21.9937 35.48 20.9523 35.084C19.9257 34.688 19.031 34.1307 18.2683 33.412C17.5203 32.6933 16.9337 31.85 16.5083 30.882C16.0977 29.914 15.8923 28.858 15.8923 27.714C15.8923 26.57 16.0977 25.514 16.5083 24.546C16.9337 23.578 17.5277 22.7347 18.2903 22.016C19.053 21.2973 19.9477 20.74 20.9743 20.344C22.001 19.948 23.1157 19.75 24.3183 19.75C25.5357 19.75 26.6503 19.948 27.6623 20.344C28.689 20.74 29.5763 21.2973 30.3243 22.016C31.087 22.7347 31.681 23.578 32.1063 24.546C32.5317 25.4993 32.7443 26.5553 32.7443 27.714C32.7443 28.858 32.5317 29.9213 32.1063 30.904C31.681 31.872 31.087 32.7153 30.3243 33.434C29.5763 34.138 28.689 34.688 27.6623 35.084C26.6503 35.48 25.543 35.678 24.3403 35.678ZM24.3183 32.642C25.0077 32.642 25.6383 32.5247 26.2103 32.29C26.797 32.0553 27.3103 31.718 27.7503 31.278C28.1903 30.838 28.5277 30.3173 28.7623 29.716C29.0117 29.1147 29.1363 28.4473 29.1363 27.714C29.1363 26.9807 29.0117 26.3133 28.7623 25.712C28.5277 25.1107 28.1903 24.59 27.7503 24.15C27.325 23.71 26.819 23.3727 26.2323 23.138C25.6457 22.9033 25.0077 22.786 24.3183 22.786C23.629 22.786 22.991 22.9033 22.4043 23.138C21.8323 23.3727 21.3263 23.71 20.8863 24.15C20.4463 24.59 20.1017 25.1107 19.8523 25.712C19.6177 26.3133 19.5003 26.9807 19.5003 27.714C19.5003 28.4327 19.6177 29.1 19.8523 29.716C20.1017 30.3173 20.439 30.838 20.8643 31.278C21.3043 31.718 21.8177 32.0553 22.4043 32.29C22.991 32.5247 23.629 32.642 24.3183 32.642Z" fill="#5A514F"/>
<path d="M8.338 35.678C7.15 35.678 6.04267 35.4873 5.016 35.106C4.004 34.71 3.124 34.1527 2.376 33.434C1.628 32.7153 1.04133 31.872 0.616 30.904C0.205333 29.936 0 28.8727 0 27.714C0 26.5553 0.205333 25.492 0.616 24.524C1.04133 23.556 1.628 22.7127 2.376 21.994C3.13867 21.2753 4.026 20.7253 5.038 20.344C6.05 19.948 7.15733 19.75 8.36 19.75C9.69467 19.75 10.8973 19.9847 11.968 20.454C13.0533 20.9087 13.9627 21.5833 14.696 22.478L12.408 24.59C11.88 23.9887 11.2933 23.5413 10.648 23.248C10.0027 22.94 9.29867 22.786 8.536 22.786C7.81733 22.786 7.15733 22.9033 6.556 23.138C5.95467 23.3727 5.434 23.71 4.994 24.15C4.554 24.59 4.20933 25.1107 3.96 25.712C3.72533 26.3133 3.608 26.9807 3.608 27.714C3.608 28.4473 3.72533 29.1147 3.96 29.716C4.20933 30.3173 4.554 30.838 4.994 31.278C5.434 31.718 5.95467 32.0553 6.556 32.29C7.15733 32.5247 7.81733 32.642 8.536 32.642C9.29867 32.642 10.0027 32.4953 10.648 32.202C11.2933 31.894 11.88 31.432 12.408 30.816L14.696 32.928C13.9627 33.8227 13.0533 34.5047 11.968 34.974C10.8973 35.4433 9.68733 35.678 8.338 35.678Z" fill="#5A514F"/>
</svg>
